<svg xmlns="http://www.w3.org/2000/svg" xmlns:xlink="http://www.w3.org/1999/xlink">
    <symbol id="main-search" viewBox="0 0 24 24">
        <path d="M9.9 5C7.2021 5 5 7.2021 5 9.9C5 12.5979 7.2021 14.8 9.9 14.8C11.1236 14.8 12.2415 14.3436 13.102 13.5969L13.4 13.8949V14.8L17.6 19L19 17.6L14.8 13.4H13.8949L13.5969 13.102C14.3436 12.2415 14.8 11.1236 14.8 9.9C14.8 7.2021 12.5979 5 9.9 5ZM9.9 6.4C11.8413 6.4 13.4 7.95871 13.4 9.9C13.4 11.8413 11.8413 13.4 9.9 13.4C7.95871 13.4 6.4 11.8413 6.4 9.9C6.4 7.95871 7.95871 6.4 9.9 6.4Z"/>
    </symbol>
    <symbol id="feedback" viewBox="0 0 24 24">
        <path d="M18.6667 5.33334H5.33341C4.41675 5.33334 3.67508 6.08334 3.67508 7.00001L3.66675 17C3.66675 17.9167 4.41675 18.6667 5.33341 18.6667H18.6667C19.5834 18.6667 20.3334 17.9167 20.3334 17V7.00001C20.3334 6.08334 19.5834 5.33334 18.6667 5.33334ZM18.6667 17H5.33341V8.66668L12.0001 12.8333L18.6667 8.66668V17ZM12.0001 11.1667L5.33341 7.00001H18.6667L12.0001 11.1667Z" />
    </symbol>
    <symbol id="language-arrow" viewBox="0 0 16 9" fill="none">
        <path d="M15 1L7.78788 8L1 0.999999" stroke="white"/>
    </symbol>
</svg>
