<svg xmlns="http://www.w3.org/2000/svg" xmlns:xlink="http://www.w3.org/1999/xlink">
    <symbol id="main-search" viewBox="0 0 24 24">
        <path d="M9.9 5C7.2021 5 5 7.2021 5 9.9C5 12.5979 7.2021 14.8 9.9 14.8C11.1236 14.8 12.2415 14.3436 13.102 13.5969L13.4 13.8949V14.8L17.6 19L19 17.6L14.8 13.4H13.8949L13.5969 13.102C14.3436 12.2415 14.8 11.1236 14.8 9.9C14.8 7.2021 12.5979 5 9.9 5ZM9.9 6.4C11.8413 6.4 13.4 7.95871 13.4 9.9C13.4 11.8413 11.8413 13.4 9.9 13.4C7.95871 13.4 6.4 11.8413 6.4 9.9C6.4 7.95871 7.95871 6.4 9.9 6.4Z"/>
    </symbol>
    <symbol id="feedback" viewBox="0 0 24 24">
        <path d="M18.6667 5.33334H5.33341C4.41675 5.33334 3.67508 6.08334 3.67508 7.00001L3.66675 17C3.66675 17.9167 4.41675 18.6667 5.33341 18.6667H18.6667C19.5834 18.6667 20.3334 17.9167 20.3334 17V7.00001C20.3334 6.08334 19.5834 5.33334 18.6667 5.33334ZM18.6667 17H5.33341V8.66668L12.0001 12.8333L18.6667 8.66668V17ZM12.0001 11.1667L5.33341 7.00001H18.6667L12.0001 11.1667Z" />
    </symbol>
    <symbol id="language-arrow" viewBox="0 0 16 9" fill="none">
        <path d="M15 1L7.78788 8L1 0.999999" stroke="white"/>
    </symbol>

    <symbol id="password-view" viewBox="0 0 16 9">
        <svg viewBox="0 0 24 24" xmlns="http://www.w3.org/2000/svg">
            <path fill-rule="evenodd" clip-rule="evenodd" d="M12 5C7 5 2.73 8.11 1 12.5C2.73 16.89 7 20 12 20C17 20 21.27 16.89 23 12.5C21.27 8.11 17 5 12 5ZM12 17.5C9.24 17.5 7 15.26 7 12.5C7 9.74 9.24 7.5 12 7.5C14.76 7.5 17 9.74 17 12.5C17 15.26 14.76 17.5 12 17.5ZM9 12.5C9 10.84 10.34 9.5 12 9.5C13.66 9.5 15 10.84 15 12.5C15 14.16 13.66 15.5 12 15.5C10.34 15.5 9 14.16 9 12.5Z" />
        </svg>
    </symbol>
    <symbol id="password-hidden" viewBox="0 0 16 9">
        <svg viewBox="0 0 24 22" xmlns="http://www.w3.org/2000/svg">
            <path fill-rule="evenodd" clip-rule="evenodd" d="M2.70664 0.292847L1.29243 1.70706L5.35725 5.77188C4.97859 6.08569 4.60385 6.42271 4.23324 6.7811C3.40403 7.583 2.65384 8.43911 1.99344 9.29558C1.59494 9.81239 1.31201 10.2189 1.1571 10.4612L0.8125 11L1.1571 11.5388C1.31201 11.781 1.59494 12.1875 1.99344 12.7043C2.65384 13.5608 3.40403 14.4169 4.23324 15.2188C6.66386 17.5693 9.27199 19 11.9995 19C13.7204 19 15.3938 18.4304 17.0051 17.4197L21.2924 21.7071L22.7066 20.2928L2.70664 0.292847ZM15.5442 15.9588L14.0315 14.4461C13.436 14.798 12.7413 15 11.9995 15C9.7904 15 7.99953 13.2091 7.99953 11C7.99953 10.2581 8.20146 9.5635 8.55335 8.96799L6.77925 7.19389C6.39186 7.5063 6.00631 7.84868 5.62357 8.2188C4.86937 8.94816 4.18192 9.73267 3.57728 10.5168C3.44669 10.6862 3.32602 10.8478 3.2157 11C3.32602 11.1521 3.44669 11.3137 3.57728 11.4831C4.18192 12.2672 4.86937 13.0518 5.62357 13.7811C7.71703 15.8056 9.89446 17 11.9995 17C13.1677 17 14.3581 16.6322 15.5442 15.9588ZM10.0673 10.4819C10.0231 10.6471 9.99953 10.8208 9.99953 11C9.99953 12.1045 10.895 13 11.9995 13C12.1787 13 12.3524 12.9764 12.5176 12.9322L10.0673 10.4819ZM20.0976 14.8909L18.6834 13.4767C19.3175 12.8356 19.9004 12.1592 20.4218 11.4831C20.5524 11.3137 20.673 11.1521 20.7834 11C20.673 10.8478 20.5524 10.6862 20.4218 10.5168C19.8171 9.73267 19.1297 8.94816 18.3755 8.2188C16.282 6.19433 14.1046 4.99995 11.9995 4.99995C11.4772 4.99995 10.9505 5.07348 10.4217 5.21497L8.83968 3.633C9.87213 3.22133 10.9266 2.99995 11.9995 2.99995C14.7271 2.99995 17.3352 4.43058 19.7658 6.7811C20.595 7.583 21.3452 8.43911 22.0056 9.29558C22.4041 9.81239 22.6871 10.2189 22.842 10.4612L23.1866 11L22.842 11.5388C22.6871 11.781 22.4041 12.1875 22.0056 12.7043C21.4345 13.4451 20.7961 14.1855 20.0976 14.8909Z" />
        </svg>
    </symbol>
    <symbol id="modal-close" viewBox="0 0 16 9">
        <svg viewBox="0 0 24 24" fill="none" xmlns="http://www.w3.org/2000/svg">
            <rect x="0.686279" y="21.8994" width="30" height="2" rx="1" transform="rotate(-45 0.686279 21.8994)" fill="#1D87FE"/>
            <rect x="2.10059" y="0.686279" width="30" height="2" rx="1" transform="rotate(45 2.10059 0.686279)" fill="#1D87FE"/>
        </svg>
    </symbol>
</svg>
