<svg width="16" height="16" viewBox="0 0 16 16" fill="none" xmlns="http://www.w3.org/2000/svg">
<path d="M16 11.9225C16 12.7999 15.3032 13.4967 14.4516 13.4967H1.54839C0.696774 13.4967 0 12.7999 0 11.9225V4.07737C0 3.19995 0.696774 2.50317 1.54839 2.50317H14.4516C15.3032 2.50317 16 3.19995 16 4.07737V11.9225Z" fill="#009966"/>
<path d="M1.96114 5.00643C2.06436 4.92901 2.06436 5.13546 1.96114 5.36772C2.01275 5.2903 2.11598 5.10966 2.09017 4.98062C2.06436 4.79998 1.96114 4.82579 1.88372 4.92901C1.8321 5.00643 1.85791 5.05804 1.96114 5.00643Z" fill="white"/>
<path d="M1.98689 6.47741C2.11592 6.24515 2.06431 6.0645 2.16754 5.72902C2.24496 5.52257 2.24496 5.67741 2.24496 5.80644C2.19334 6.14192 2.21915 6.68386 2.68367 6.65805C2.70947 6.96773 2.78689 7.50966 2.78689 7.71611C2.78689 7.89676 2.8127 7.84515 2.86431 7.74192C2.91592 7.6387 2.89012 7.50966 2.89012 7.35483C2.89012 7.19999 2.86431 6.91612 2.8385 6.52902C2.89012 6.47741 2.96754 6.39999 2.99334 6.34838C3.04496 6.21934 3.07076 6.24515 3.09657 6.34838C3.14818 6.55483 3.35463 6.68386 3.6127 6.47741C3.87076 6.29676 3.76754 5.93547 3.6385 5.54838C3.74173 5.57418 3.76754 5.49676 3.71592 5.39354C3.69012 5.34192 3.6385 5.29031 3.6127 5.2387C3.56108 5.18709 3.53528 5.13547 3.48367 5.18709C3.43205 5.2387 3.40625 5.29031 3.38044 5.31612C3.35463 5.34192 3.35463 5.39354 3.38044 5.47096C3.48367 5.70321 3.53528 5.96128 3.56109 6.09031C3.58689 6.21934 3.53528 6.24515 3.43205 6.24515C3.35463 6.24515 3.2256 6.21934 3.17399 6.01289C3.12238 5.80644 3.09657 5.72902 3.12238 5.57418C3.12238 5.44515 3.14818 5.34192 3.04496 5.21289C2.94173 5.08386 2.94173 5.10967 2.91592 5.16128C2.89012 5.2387 2.86431 5.34192 2.89012 5.47096C2.94173 5.6516 2.96754 5.80644 2.99334 5.90967C3.01915 5.98709 2.94173 6.14192 2.8127 6.21934C2.78689 5.96128 2.76109 5.6516 2.73528 5.36773C2.89012 5.31612 2.8127 5.13547 2.68367 4.92902C2.60625 4.77418 2.55463 4.8258 2.50302 4.92902C2.45141 5.03225 2.47721 5.08386 2.52883 5.16128C2.50302 5.2387 2.55463 5.34192 2.58044 5.52257C2.60625 5.6516 2.63205 5.98708 2.63205 6.27096C2.52883 6.27096 2.45141 6.19354 2.39979 6.09031C2.32238 5.88386 2.32238 5.67741 2.37399 5.57418C2.4256 5.44515 2.45141 5.26451 2.37399 5.21289C2.29657 5.16128 2.21915 5.21289 2.16754 5.31612C2.06431 5.47096 1.96109 5.67741 1.96109 5.90967C1.96109 5.98709 1.93528 6.16773 1.88367 6.24515C1.85786 6.32257 1.78044 6.32257 1.72883 6.21934C1.6256 6.0645 1.59979 5.6516 1.59979 5.44515C1.59979 5.34192 1.57399 5.31612 1.54818 5.44515C1.44496 5.85805 1.57399 6.27096 1.65141 6.4516C1.78044 6.68386 1.90947 6.63225 1.98689 6.47741Z" fill="white"/>
<path d="M3.22586 5.13553C3.27747 5.08392 3.27747 5.08392 3.30328 5.13553C3.32908 5.18714 3.4065 5.18714 3.43231 5.13553C3.45812 5.08392 3.48392 5.05811 3.45812 4.98069C3.43231 4.92908 3.43231 4.95488 3.4065 5.0065C3.3807 5.10972 3.27747 5.08392 3.27747 4.95488C3.27747 4.82585 3.25166 4.90327 3.20005 4.98069C3.14844 5.10972 3.07102 5.08392 3.07102 4.95488C3.07102 4.87746 3.04521 4.80004 2.9936 4.90327C2.96779 4.98069 2.9936 5.05811 3.01941 5.10972C3.09683 5.18714 3.17424 5.18714 3.22586 5.13553Z" fill="white"/>
<path d="M2.45139 7.07091C2.52881 7.04511 2.52881 7.04511 2.52881 6.94188C2.52881 6.83865 2.47719 6.89027 2.37397 6.91607C2.21913 6.96769 1.90945 7.12253 1.67719 7.4064C1.57397 7.53543 1.65139 7.48382 1.72881 7.43221C1.85784 7.32898 2.24494 7.12253 2.45139 7.07091Z" fill="white"/>
<path d="M1.93551 8.72258C1.85809 8.85161 1.70325 8.67097 1.80648 8.33548C1.83229 8.25806 1.85809 8.20645 1.85809 8.15484C1.85809 8.10322 1.85809 8.05161 1.85809 7.97419C1.85809 7.92258 1.80648 8 1.78067 8.10322C1.75487 8.25806 1.65164 8.33548 1.67745 8.8258C1.70325 9.10968 2.03874 9.10968 2.06454 8.74839C2.06454 8.59355 2.01293 8.59355 1.93551 8.72258Z" fill="white"/>
<path d="M4.2321 7.63879C4.2321 7.50976 4.20629 7.38073 4.20629 7.2517C4.2321 7.2517 4.2321 7.22589 4.25791 7.22589C4.33532 7.45815 4.67081 7.40653 4.77403 7.2517C4.82565 7.17428 4.82565 7.17428 4.87726 7.2517C4.95468 7.35492 5.21274 7.40653 5.26436 7.2517C5.31597 7.09686 5.31597 6.94202 5.29016 6.83879C5.26436 6.70976 5.23855 6.73557 5.16113 6.78718C5.08371 6.83879 5.13532 6.8646 5.16113 6.94202C5.18694 7.2517 4.92887 7.22589 4.90307 6.91621C4.87726 6.70976 4.85145 6.78718 4.82565 6.89041C4.69662 7.2775 4.36113 7.35492 4.41274 6.89041C4.41274 6.76137 4.33533 6.81299 4.28371 6.8646C4.25791 6.89041 4.20629 6.94202 4.18049 6.96782C4.15468 6.60653 4.12887 6.19363 4.07726 5.6775C4.18049 5.80654 4.28371 5.6517 4.20629 5.52266C4.15468 5.41944 4.07726 5.16137 4.02565 5.03234C3.97403 4.90331 3.94823 4.92912 3.845 5.05815C3.74178 5.16137 3.76758 5.18718 3.79339 5.31621C3.79339 5.47105 3.79339 5.60008 3.845 5.88395C3.87081 6.09041 3.92242 6.52911 3.97403 7.07105C3.92242 7.09686 3.845 7.14847 3.79339 7.17428C3.76758 7.07105 3.69016 7.01944 3.58694 6.91621C3.4321 6.76137 3.32887 6.76137 3.19984 6.94202C3.07081 7.12266 3.09662 7.14847 3.09662 7.32911C3.09662 7.48395 3.07081 7.53557 3.19984 7.58718C3.32887 7.63879 3.38049 7.61299 3.45791 7.58718C3.50952 7.56137 3.58694 7.53557 3.69016 7.50976C3.71597 7.58718 3.69016 7.6904 3.63855 7.74202C3.32887 8.10331 2.86436 8.38718 2.65791 8.12911C2.55468 8.00008 2.50307 7.79363 2.52887 7.53557C2.55468 7.32911 2.50307 7.43234 2.47726 7.48395C2.39984 7.71621 2.37403 8.0775 2.47726 8.25815C2.60629 8.51621 2.83855 8.61944 3.19984 8.43879C3.56113 8.28395 3.89662 8.00008 3.89662 7.61299C3.89662 7.53557 3.89662 7.48395 3.89662 7.43234C3.94823 7.40653 3.99984 7.38073 4.02565 7.35492C4.02565 7.48395 4.02565 7.6646 4.02565 7.79363C4.05145 8.20653 3.87081 8.33557 3.71597 8.4646C3.50952 8.61944 3.22565 8.74847 2.96758 8.77427C2.39984 8.85169 2.27081 8.4904 2.27081 8.00008C2.27081 7.92266 2.29662 7.87105 2.29662 7.76782C2.29662 7.56137 2.27081 7.58718 2.19339 7.79363C2.14178 8.00008 2.06436 8.4646 2.245 8.85169C2.45145 9.23879 3.12242 9.13557 3.63855 8.8775C4.20629 8.59363 4.25791 8.12911 4.2321 7.63879ZM3.50952 7.2517C3.38049 7.30331 3.32887 7.22589 3.35468 7.14847C3.35468 7.07105 3.38049 7.01944 3.48371 7.07105C3.53532 7.09686 3.58694 7.14847 3.63855 7.22589C3.56113 7.2517 3.53532 7.2517 3.50952 7.2517Z" fill="white"/>
<path d="M4.82548 8.07751C4.87709 7.97428 4.9029 7.87106 4.87709 7.74202C4.85128 7.66461 4.87709 7.6388 4.79967 7.58719C4.72225 7.56138 4.69645 7.61299 4.67064 7.66461C4.64483 7.74202 4.69645 7.84525 4.79967 7.79364C4.82548 7.84525 4.79967 7.97428 4.77386 8.0517C4.74806 8.15493 4.77386 8.18073 4.82548 8.07751Z" fill="white"/>
<path d="M5.03231 5.98716C4.92908 6.11619 4.85166 6.29684 5.0065 6.40006C5.08392 6.45168 5.23876 6.37426 5.29037 6.27103C5.34199 6.142 5.31618 6.11619 5.21295 6.24522C5.08392 6.40006 4.92908 6.27103 5.08392 6.03877C5.18715 5.88393 5.10973 5.85813 5.03231 5.98716Z" fill="white"/>
<path d="M4.59346 6.01296C4.95475 5.85812 5.1612 5.65167 5.26442 5.47102C5.36765 5.49683 5.39346 5.41941 5.34184 5.34199C5.36765 5.26457 5.39346 5.21296 5.41926 5.16135C5.49668 4.82587 5.1612 4.80006 5.08378 5.05812C5.03217 5.18715 5.03217 5.31619 5.13539 5.39361C4.98055 5.60006 4.7741 5.7807 4.51604 5.93554C4.41281 6.03877 4.43862 6.09038 4.59346 6.01296ZM5.21281 5.10974C5.23862 5.03232 5.29023 5.08393 5.29023 5.13554C5.29023 5.16135 5.26442 5.21296 5.23862 5.23877C5.187 5.21296 5.187 5.16135 5.21281 5.10974Z" fill="white"/>
<path d="M5.47125 8.0775C5.41964 8.1033 5.34222 8.18072 5.2906 8.23234C5.2906 8.12911 5.31641 7.97427 5.31641 7.92266C5.31641 7.84524 5.2906 7.81943 5.23899 7.89685C5.16157 8.05169 5.08415 8.25814 5.05835 8.41298C4.72286 8.64524 4.30996 8.8775 4.02609 9.00653C3.89706 9.05815 3.97447 9.10976 4.0777 9.08395C4.4648 8.95492 4.77447 8.85169 5.05835 8.72266C5.08415 8.95492 5.16157 9.10976 5.36802 9.16137C5.75512 9.2646 6.14222 8.92911 6.58093 8.33556C6.68415 8.61944 6.94222 9.00653 7.61318 9.10976C7.89706 9.16137 7.87125 9.13557 7.92286 8.98073C7.94867 8.85169 8.00028 8.82589 7.76802 8.77427C7.48415 8.67105 7.38093 8.4646 7.6648 8.33556C7.94867 8.20653 8.33576 8.10331 8.59383 8.05169C8.77447 8.02589 8.82609 8.02589 8.8777 7.87105C8.92931 7.6904 8.95512 7.66459 8.77448 7.6904C8.56802 7.71621 7.58738 7.74201 7.32931 7.71621C7.53577 7.61298 7.81964 7.50976 8.02609 7.43234C8.10351 7.48395 8.12931 7.45814 8.10351 7.40653C8.18093 7.38072 8.25835 7.35492 8.33576 7.3033C8.56802 7.17427 8.67125 6.8904 8.41318 6.70975C8.15512 6.52911 7.94867 6.47749 7.81964 6.65814C7.71641 6.81298 7.61318 6.96782 7.76802 7.17427C7.53577 7.25169 7.32931 7.32911 7.12286 7.40653C6.96802 7.45814 6.8906 7.48395 6.83899 7.6904C6.78738 7.89685 6.76157 7.89685 6.96802 7.92266C7.25189 7.92266 7.50996 7.92266 7.6906 8.0775C7.40673 8.18072 7.20028 8.38718 7.30351 8.67105C7.17447 8.64524 7.04544 8.59363 6.94222 8.4904C6.73576 8.28395 6.73576 7.92266 6.65835 7.50976C6.58093 7.09685 6.40028 6.73556 6.32286 6.58072C6.27125 6.42588 6.24544 6.5033 6.19383 6.60653C6.14222 6.70975 6.0906 6.76137 6.14222 6.91621C6.24544 7.17427 6.40028 7.6904 6.4777 8.00008C6.32286 8.36137 5.90996 8.80008 5.57447 8.85169C5.31641 8.90331 5.23899 8.74847 5.2648 8.61944C5.44544 8.51621 5.60028 8.38718 5.75512 8.23234C6.0648 7.89685 6.11641 7.63879 5.90996 7.09685C6.03899 7.12266 6.01318 7.01943 5.83254 6.78717C5.70351 6.63233 5.6777 6.65814 5.60028 6.81298C5.54867 6.94201 5.49706 7.04524 5.65189 7.09685C5.6777 7.17427 5.72931 7.2775 5.80673 7.40653C5.96157 7.74201 5.70351 7.87105 5.47125 8.0775ZM7.92286 6.94201C7.92286 6.86459 7.94867 6.86459 8.0777 6.94201C8.20673 7.01943 8.30996 7.04524 8.12931 7.07104C8.0777 7.09685 8.00028 7.09685 7.94867 7.12266C7.94867 7.04524 7.94867 6.99363 7.92286 6.94201Z" fill="white"/>
<path d="M6.21973 6.47729L6.27134 6.52891C6.27134 6.47729 6.24553 6.47729 6.21973 6.47729Z" fill="#CFE7E8"/>
<path d="M8.51617 9.03232C8.59359 9.00651 8.72262 8.92909 8.82585 8.85167C8.92908 8.74844 8.85166 8.77425 8.77424 8.80006C8.69682 8.82586 8.6194 8.87748 8.51617 8.90328C8.41294 8.9549 8.38714 8.90328 8.43875 8.72264C8.49036 8.5678 8.43875 8.5678 8.36133 8.5936C8.28391 8.61941 8.2581 8.67102 8.18068 8.72264C8.12907 8.74844 8.12907 8.80006 8.2581 8.74844C8.36133 8.69683 8.33552 8.74844 8.30972 8.87748C8.2581 9.00651 8.33552 9.08393 8.51617 9.03232Z" fill="white"/>
<path d="M6.11636 6.2193C6.19378 6.03866 6.24539 5.85801 6.29701 5.72898C6.34862 5.59995 6.40023 5.62575 6.37443 5.75479C6.34862 5.98704 6.34862 6.34834 6.58088 6.50317C6.81314 6.63221 7.17443 6.39995 7.30346 6.14188C7.69056 6.63221 8.02604 6.39995 8.05185 5.93543C8.05185 5.78059 8.00023 5.47092 7.94862 5.36769C7.89701 5.26446 7.94862 5.26446 8.00024 5.31608C8.05185 5.36769 8.15507 5.4193 8.10346 5.23866C8.05185 5.08382 7.97443 4.98059 7.89701 4.90317C7.81959 4.82576 7.79378 4.87737 7.76798 4.92898C7.74217 4.98059 7.74217 5.0064 7.69056 5.05801C7.63894 5.10963 7.66475 5.13543 7.69056 5.21285C7.8454 5.57414 7.97443 6.11608 7.74217 6.16769C7.53572 6.2193 7.40669 5.75479 7.40669 5.54834C7.40669 5.29027 7.35507 5.05801 7.30346 4.90317C7.25185 4.74834 7.22604 4.74834 7.17443 4.82576C7.14862 4.87737 7.14862 4.92898 7.09701 4.98059C7.0712 5.03221 7.09701 5.05801 7.12281 5.16124C7.25185 5.75479 7.22604 6.01285 6.96798 6.16769C6.70991 6.32253 6.55507 6.16769 6.55507 5.98705C6.55507 5.8064 6.55507 5.57414 6.58088 5.4193C6.60669 5.26446 6.63249 5.21285 6.58088 5.13543C6.52927 5.05801 6.47765 5.08382 6.40023 5.18705C6.24539 5.4193 6.06475 5.8064 6.01314 5.98705C5.96152 6.16769 5.83249 6.11608 5.75507 5.96124C5.65185 5.78059 5.67765 5.44511 5.70346 5.29027C5.72927 5.16124 5.72926 5.10963 5.65185 5.23866C5.52281 5.59995 5.52281 5.96124 5.80668 6.27092C5.93572 6.50317 6.03894 6.39995 6.11636 6.2193Z" fill="white"/>
<path d="M6.83871 5.5226C6.83871 5.60002 6.83871 5.70324 6.89032 5.54841C6.91613 5.39357 6.91613 5.18711 6.86452 5.05808C6.8129 4.92905 6.7871 4.90324 6.73549 4.95485C6.68387 5.00647 6.68387 5.03227 6.73549 5.08389C6.7871 5.16131 6.86452 5.34195 6.83871 5.5226Z" fill="white"/>
<path d="M7.38111 6.73543C7.38111 6.94188 7.32949 6.94188 7.25207 6.73543C7.22627 6.65801 7.20046 6.65801 7.17465 6.76123C7.17465 6.94188 7.09724 6.96769 7.04562 6.78704C7.01982 6.70962 7.01982 6.6322 6.99401 6.76123C6.9682 6.86446 6.99401 6.94188 7.04562 7.0193C7.09724 7.07091 7.17465 7.07091 7.20046 6.99349C7.22627 6.91607 7.25207 6.91607 7.30369 6.96769C7.3553 7.0193 7.56175 6.96769 7.45852 6.68381C7.40691 6.58059 7.38111 6.60639 7.38111 6.73543Z" fill="white"/>
<path d="M9.47122 5.1096C9.54864 5.16121 9.62606 5.29025 9.60026 5.44508C9.57445 5.57412 9.60026 5.65154 9.67767 5.47089C9.75509 5.29025 9.70348 5.08379 9.62606 4.95476C9.54864 4.82573 9.52284 4.87734 9.47122 4.92896C9.41961 5.00637 9.39381 5.08379 9.47122 5.1096Z" fill="white"/>
<path d="M8.15513 5.18707C8.15513 5.26449 8.18093 5.3161 8.28416 5.34191C8.49061 5.62578 8.72287 5.93546 8.92932 6.21933C8.95513 6.47739 9.00674 6.73546 9.03255 6.96772C9.08416 7.48385 9.18739 8.18062 9.10997 8.4903C9.05836 8.72256 9.10997 8.79998 9.2132 8.46449C9.31642 8.12901 9.31642 7.79352 9.239 7.3032C9.2132 7.09675 9.2132 6.86449 9.18739 6.60643C9.52287 7.14836 9.85836 7.66449 9.98739 8.02578C10.0648 8.23224 10.1422 8.25804 10.0648 7.99998C9.98739 7.63869 9.65191 7.01933 9.13578 6.24513C9.10997 6.03868 9.10997 5.83223 9.10997 5.67739C9.18739 5.75481 9.239 5.7032 9.2132 5.59997C9.16158 5.39352 9.08416 5.23868 9.00674 5.03223C8.98094 4.929 8.87771 4.929 8.8261 5.05804C8.77449 5.21287 8.77449 5.23868 8.8261 5.34191C8.8261 5.47094 8.8519 5.65158 8.87771 5.83223C8.80029 5.7032 8.67126 5.52255 8.56803 5.39352C8.69707 5.44513 8.80029 5.41933 8.67126 5.26449C8.54223 5.13545 8.36158 4.98062 8.25835 4.87739C8.15513 4.77416 8.10352 4.85158 8.10352 4.929C8.15513 5.05804 8.18094 5.10965 8.15513 5.18707Z" fill="white"/>
<path d="M9.62603 5.90966C9.60022 6.03869 9.54861 5.98708 9.5228 5.88385C9.497 5.83224 9.47119 5.85805 9.47119 5.96127C9.497 6.0645 9.5228 6.14192 9.60022 6.0645C9.65184 6.01288 9.65184 6.01288 9.72925 6.0645C9.78087 6.11611 9.83248 6.0645 9.85829 6.03869C9.85829 6.01288 9.88409 5.96127 9.85829 5.83224C9.83248 5.70321 9.80667 5.78063 9.78087 5.88385C9.75506 5.98708 9.70345 6.01288 9.67764 5.88385C9.67764 5.78063 9.62603 5.80643 9.62603 5.90966Z" fill="white"/>
<path d="M10.2197 7.58709C10.2455 8.05161 10.2971 8.25806 10.0132 8.59354C9.70355 8.92902 9.4971 9.03225 9.36806 9.05806C9.18742 9.10967 9.13581 9.18709 9.39387 9.16128C9.78097 9.13548 9.83258 9.13548 10.1681 8.74838C10.3487 8.54193 10.4261 8.28386 10.4261 7.66451C10.4003 6.58064 10.2713 6.11612 10.2713 5.52257C10.3229 5.57419 10.4003 5.57419 10.3745 5.47096C10.3229 5.34193 10.2971 5.18709 10.2713 5.05806C10.2197 4.92903 10.1939 4.87741 10.1423 4.95483C10.0906 5.03225 10.039 5.05806 10.0132 5.10967C9.98742 5.16128 9.96161 5.2387 10.0132 5.31612C10.1681 6.58064 10.1939 7.12257 10.2197 7.58709Z" fill="white"/>
<path d="M10.8906 7.71604C10.9164 7.97411 10.968 8.15475 10.8906 8.46443C10.8648 8.54185 10.9164 8.59346 10.968 8.46443C11.2003 8.02572 11.0455 7.63862 11.0197 7.38056C10.9938 6.99346 10.839 5.98701 10.8132 5.57411L10.839 5.59991C10.9422 5.65153 11.0713 5.70314 10.9938 5.5483C10.9164 5.41927 10.839 5.18701 10.7874 5.03217C10.7358 4.87733 10.71 4.87733 10.6326 5.00637C10.4777 5.21282 10.5809 5.41927 10.6326 5.67733C10.7358 6.55475 10.8648 7.45798 10.8906 7.71604Z" fill="white"/>
<path d="M11.4327 6.27103C11.5102 6.34845 11.5618 6.50329 11.6134 6.58071C11.665 6.70974 11.7166 6.60652 11.7166 6.5291C11.7166 6.45168 11.6908 6.21942 11.7166 6.142C11.7682 6.01297 11.8456 6.19361 11.8714 6.11619C11.8973 6.06458 11.8456 6.03877 11.8198 5.98716C11.794 5.90974 11.7682 5.93555 11.7166 5.96135C11.665 6.01297 11.6392 6.06458 11.6392 6.09039C11.6392 6.16781 11.6392 6.24523 11.6392 6.37426C11.6392 6.47748 11.6134 6.47748 11.5876 6.42587C11.5618 6.34845 11.4844 6.16781 11.4327 6.11619C11.3811 6.06458 11.3037 6.09039 11.3037 6.16781C11.3037 6.24522 11.3037 6.21942 11.3037 6.29684C11.3037 6.34845 11.4069 6.34845 11.4327 6.27103Z" fill="white"/>
<path d="M11.3809 7.27731C11.3809 7.35473 11.4841 7.2515 11.5615 7.19989C11.6389 7.14828 11.8712 6.99344 11.9744 6.94182C12.0776 6.89021 12.0518 6.8644 12.026 6.76118C12.026 6.65795 11.9486 6.73537 11.8712 6.81279C11.7938 6.89021 11.5615 7.04505 11.4841 7.12247C11.4067 7.19989 11.3809 7.2257 11.3809 7.27731Z" fill="white"/>
<path d="M10.8388 8.67106C10.7356 8.46461 10.7356 8.25816 10.7356 8.07751C10.7356 7.92267 10.7098 7.79364 10.6581 8.05171C10.5033 8.67106 10.6065 8.80009 10.7614 8.92913C10.9678 9.10977 11.0452 9.13558 11.1485 8.95493C11.3549 8.64526 11.4323 8.38719 11.5356 8.23235C11.6388 8.10332 11.6388 8.20655 11.6904 8.25816C11.8194 8.413 11.9227 8.46461 12.1033 8.49042C12.2839 8.51622 12.5936 8.36138 12.5678 7.79364C12.542 7.43235 12.5162 6.96784 12.4904 6.45171C12.671 6.68397 12.8001 6.89042 12.9291 7.07106C12.9807 7.40655 13.0065 7.71622 13.0065 7.94848C12.9807 8.23235 13.0581 8.23235 13.1097 7.94848C13.1356 7.84526 13.1356 7.58719 13.1097 7.30332C13.342 7.613 13.471 7.79364 13.5485 7.94848C13.6517 8.12913 13.7033 8.25816 13.6775 7.92267C13.6775 7.79364 13.6259 7.69042 13.471 7.45816C13.3162 7.25171 13.1872 7.04526 13.0581 6.8388C13.0065 6.34848 12.9549 5.80655 12.9549 5.52267C13.0323 5.57429 13.0839 5.52268 13.0323 5.41945C13.0065 5.31622 12.9291 5.00655 12.8775 4.90332C12.8259 4.80009 12.7743 4.80009 12.7227 4.92913C12.671 5.03235 12.6194 5.08397 12.6452 5.16138C12.671 5.65171 12.7227 6.11622 12.8001 6.52913C12.671 6.34848 12.542 6.16784 12.4388 6.013C12.4388 5.83235 12.413 5.65171 12.413 5.47106C12.4904 5.52268 12.5162 5.52267 12.4904 5.39364C12.4646 5.29042 12.3614 5.03235 12.3098 4.92913C12.2581 4.8259 12.2323 4.8259 12.1807 4.90332C12.1033 5.03235 12.0775 5.13558 12.1549 5.26461C12.1549 5.39364 12.1807 5.49687 12.1807 5.6259C12.1033 5.52267 12.0517 5.41945 11.9743 5.34203C12.0517 5.36784 12.1033 5.31622 12.0259 5.2388C11.9485 5.16138 11.7936 5.03235 11.7162 4.95493C11.6388 4.85171 11.5872 4.87751 11.5872 4.95493C11.5872 5.03235 11.5872 5.10977 11.5872 5.18719C11.5872 5.26461 11.5872 5.31622 11.6646 5.44526C11.8452 5.67751 12.0517 5.90977 12.2065 6.14203C12.2839 6.96784 12.3098 7.50977 12.3098 7.84526C12.3098 8.05171 12.2323 8.15493 12.1291 8.18074C12.0259 8.20655 11.9227 8.15493 11.8194 8.00009C11.6388 7.74203 11.5614 7.79364 11.4323 8.0259C11.3033 8.25816 11.2001 8.4388 11.1227 8.59364C11.071 8.74848 10.942 8.87751 10.8388 8.67106Z" fill="white"/>
<path d="M13.3164 5.80647C13.3164 5.96131 13.3681 5.9355 13.3939 5.80647C13.4197 5.67744 13.4197 5.41937 13.3423 5.26453C13.2648 5.08389 13.239 5.16131 13.2132 5.21292C13.1616 5.29034 13.1616 5.31615 13.239 5.39357C13.2648 5.47098 13.3164 5.65163 13.3164 5.80647Z" fill="white"/>
<path d="M14.0131 7.40634C13.9615 6.32247 13.8325 5.85795 13.8583 5.44505C13.9615 5.52247 13.9873 5.49666 13.9357 5.36763C13.8841 5.23859 13.8067 5.08376 13.7551 4.92892C13.7035 4.79988 13.6776 4.82569 13.6002 4.92892C13.5228 5.03214 13.5228 5.10956 13.5486 5.16117C13.7035 6.4773 13.7809 7.17408 13.8067 7.58698C13.8325 8.15472 13.7035 8.49021 13.1357 8.8773C12.9551 9.00634 12.7486 9.13537 13.1873 9.03214C13.6002 8.90311 14.0647 8.61924 14.0131 7.40634Z" fill="white"/>
<path d="M12.568 8.54176C12.4906 8.64498 12.6712 8.6966 12.697 8.61918C12.7486 8.6966 12.697 8.82563 12.6196 8.90305C12.4906 9.00628 12.568 9.03208 12.6454 8.95466C12.7228 8.90305 12.9293 8.67079 12.8002 8.51595C12.7228 8.46434 12.6196 8.46434 12.568 8.54176Z" fill="white"/>
<path d="M12 10.4517C11.6645 10.4517 11.3548 10.4517 11.0193 10.4775V10.3743C11.1226 10.2453 11.0968 10.2453 11.0193 10.1162C10.9935 10.0646 10.9677 10.013 10.8903 10.1162C10.8129 10.2195 10.8129 10.2453 10.9161 10.3743V10.4775C8.36127 10.5033 5.54837 10.4775 3.12256 10.4517C3.38062 10.8904 4.25804 10.8646 5.05804 10.8646C5.78062 10.8646 7.94837 10.8646 10.8903 10.7872V10.9162C10.7871 11.0453 10.8129 11.0453 10.8903 11.1743C10.9677 11.2775 10.9935 11.2259 11.0193 11.1743C11.0451 11.1485 11.0451 11.1227 11.0451 11.1227H11.4322C11.4322 11.1743 11.5097 11.2001 11.5355 11.2001C11.5613 11.2001 11.6387 11.1743 11.6387 11.1227H12.0774C12.129 11.2001 12.1806 11.2259 12.258 11.2259C12.4129 11.2259 12.4903 11.0453 12.4645 10.813C12.4387 10.4775 12.3097 10.4259 12 10.4517ZM11.6387 10.9679C11.6387 10.9162 11.5613 10.8904 11.5355 10.8904C11.5097 10.8904 11.4322 10.9162 11.4322 10.9679H11.0451C11.0451 10.942 11.0193 10.9162 10.9677 10.8646V10.7356C11.3032 10.7356 11.6645 10.7098 12.0258 10.7098C12 10.7872 12 10.8646 12 10.942L11.6387 10.9679Z" fill="white"/>
</svg>
