<svg width="16" height="16" viewBox="0 0 16 16" fill="none" xmlns="http://www.w3.org/2000/svg">
<path d="M0 9.8064V11.9225C0 12.7999 0.696774 13.4193 1.54839 13.4193H14.4516C15.3032 13.4193 16 12.7999 16 11.9225V9.8064H0Z" fill="#00AE65"/>
<path d="M14.4516 2.58057H1.54839C0.696774 2.58057 0 3.19992 0 4.07734V6.19347H16V4.07734C16 3.19992 15.3032 2.58057 14.4516 2.58057Z" fill="#0098C3"/>
<path d="M16 6.1936H0V9.80651H16V6.1936Z" fill="#E00034"/>
<path d="M7.76776 9.49683C6.94196 9.49683 6.27099 8.82586 6.27099 8.00006C6.27099 7.17425 6.94196 6.50328 7.76776 6.50328C8.20647 6.50328 8.61938 6.68393 8.87744 6.9936C8.54196 6.50328 8.00002 6.1936 7.38067 6.1936C6.37422 6.1936 5.57422 6.9936 5.57422 8.00006C5.57422 9.00651 6.37422 9.80651 7.38067 9.80651C8.00002 9.80651 8.56776 9.49683 8.87744 9.00651C8.61938 9.31619 8.23228 9.49683 7.76776 9.49683Z" fill="white"/>
<path d="M10.3997 8.0001L9.85776 7.81946L10.1158 7.27752L9.59969 7.53559L9.39324 6.99365L9.2126 7.53559L8.69647 7.27752L8.95453 7.81946L8.4126 8.0001L8.95453 8.18075L8.69647 8.72268L9.2126 8.46462L9.41905 9.00655L9.59969 8.46462L10.1158 8.72268L9.85776 8.18075L10.3997 8.0001Z" fill="white"/>
</svg>
