<svg width="16" height="16" viewBox="0 0 16 16" fill="none" xmlns="http://www.w3.org/2000/svg">
<g clip-path="url(#clip0)">
<path d="M16 11.9224C16 12.7998 15.3032 13.4966 14.4516 13.4966H1.54839C0.696774 13.4966 0 12.7998 0 11.9224V4.07721C0 3.19979 0.696774 2.66431 1.54839 2.66431H14.4516C15.3032 2.66431 16 3.19979 16 4.07721V11.9224Z" fill="white"/>
<path d="M0.161133 12.6162C0.402829 13.1075 0.892666 13.4521 1.46629 13.4808C1.49529 13.4808 1.52108 13.484 1.55008 13.484H14.4502C14.4502 13.484 14.563 13.4744 14.5984 13.4617C14.6532 13.4425 14.6597 13.3979 14.6178 13.3628L14.6049 13.35L13.7316 12.613H0.161133V12.6162Z" fill="#DB2727"/>
<path d="M3.9 4.23242H0V5.07113H4.88387L3.9 4.23242Z" fill="#B22234"/>
<path d="M5.86774 5.90991H0V6.74862H6.85484L5.86774 5.90991Z" fill="#B22234"/>
<path d="M9.7994 9.2583H0V10.1293H10.8065L9.7994 9.2583Z" fill="#DB2727"/>
<path d="M12.0573 11.1698L11.7861 10.9355H0V11.8065H12.7742L12.0573 11.1698Z" fill="#DB2727"/>
<path d="M1.54823 13.4966C1.51919 13.4966 1.49339 13.4966 1.46436 13.4934C1.49339 13.4966 1.51919 13.4966 1.54823 13.4966Z" fill="white"/>
<path d="M6.53357 6.74203H15.7419L13.0148 5.90332H5.54834L6.53357 6.74203Z" fill="#DB2727"/>
<path d="M8.03241 8.45178H16V7.58081H6.96777L8.03241 8.45178Z" fill="#DB2727"/>
<path d="M10.4839 10.129H16V9.25806H9.48389L10.4839 10.129Z" fill="#DB2727"/>
<path d="M11.7166 11.1698L12.4466 11.8065H16V10.9355H11.4517L11.7166 11.1698Z" fill="#DB2727"/>
<path d="M3.77393 4.22314L6.61246 4.85122L7.56013 5.06057H15.9997V4.22314H3.77393Z" fill="#DB2727"/>
<path d="M12.645 5.90332L15.3805 6.74203H15.9999V5.90332H12.645Z" fill="#DB2727"/>
<path d="M15.6902 3.13957C15.645 3.07882 15.5967 3.02447 15.5451 2.97012C15.2838 2.70795 14.9291 2.53849 14.5356 2.51931C14.5098 2.51931 14.4808 2.51611 14.455 2.51611H1.55117C1.12868 2.51611 0.728758 2.70475 0.44172 2.9861C0.32884 3.1044 0.232086 3.23868 0.161133 3.38575H2.57999H4.40542H15.8386C15.7999 3.29943 15.7482 3.2163 15.6902 3.13957Z" fill="#DB2727"/>
<path d="M15.8388 12.6128H13.4194L14.4485 13.4838C15.0549 13.4838 15.584 13.1315 15.8388 12.6128Z" fill="#DB2727"/>
<path d="M0 4.08859V8.41934H8.22581V2.51611H1.40323C0.45527 2.56767 0 3.23791 0 4.08859Z" fill="#29337A"/>
<path fill-rule="evenodd" clip-rule="evenodd" d="M0.955256 3.1555L0.88379 2.93555L0.812324 3.1555H0.581055L0.768155 3.29143L0.696689 3.51138L0.88379 3.37545L1.07089 3.51138L0.999425 3.29143L1.18653 3.1555H0.955256ZM0.955256 4.26956L0.88379 4.04961L0.812324 4.26956H0.581055L0.768155 4.4055L0.696689 4.62545L0.88379 4.48951L1.07089 4.62545L0.999425 4.4055L1.18653 4.26956H0.955256ZM0.955256 5.38369L0.88379 5.16374L0.812324 5.38369H0.581055L0.768155 5.51963L0.696689 5.73958L0.88379 5.60364L1.07089 5.73958L0.999425 5.51963L1.18653 5.38369H0.955256ZM0.955256 6.49783L0.88379 6.27788L0.812324 6.49783H0.581055L0.768155 6.63377L0.696689 6.85372L0.88379 6.71778L1.07089 6.85372L0.999425 6.63377L1.18653 6.49783H0.955256ZM0.955256 7.61189L0.88379 7.39193L0.812324 7.61189H0.581055L0.768155 7.74783L0.696689 7.96778L0.88379 7.83184L1.07089 7.96778L0.999425 7.74783L1.18653 7.61189H0.955256ZM1.57312 6.83491L1.64459 7.05486H1.87586L1.68876 7.19079L1.76023 7.41074L1.57312 7.27481L1.38602 7.41074L1.45749 7.19079L1.27039 7.05486H1.50166L1.57312 6.83491ZM1.57312 5.72084L1.64459 5.94079H1.87586L1.68876 6.07673L1.76023 6.29668L1.57312 6.16074L1.38602 6.29668L1.45749 6.07673L1.27039 5.94079H1.50166L1.57312 5.72084ZM1.57312 4.60671L1.64459 4.82666H1.87586L1.68876 4.9626L1.76023 5.18255L1.57312 5.04661L1.38602 5.18255L1.45749 4.9626L1.27039 4.82666H1.50166L1.57312 4.60671ZM1.57312 3.49258L1.64459 3.71253H1.87586L1.68876 3.84847L1.76023 4.06842L1.57312 3.93248L1.38602 4.06842L1.45749 3.84847L1.27039 3.71253H1.50166L1.57312 3.49258ZM2.28125 7.61189L2.20979 7.39193L2.13832 7.61189H1.90705L2.09415 7.74783L2.02268 7.96778L2.20979 7.83184L2.39689 7.96778L2.32542 7.74783L2.51253 7.61189H2.28125ZM2.20979 6.27788L2.28125 6.49783H2.51253L2.32542 6.63377L2.39689 6.85372L2.20979 6.71778L2.02268 6.85372L2.09415 6.63377L1.90705 6.49783H2.13832L2.20979 6.27788ZM2.97086 7.05486L2.89939 6.83491L2.82792 7.05486H2.59665L2.78375 7.19079L2.71229 7.41074L2.89939 7.27481L3.08649 7.41074L3.01502 7.19079L3.20213 7.05486H2.97086ZM2.20979 5.16374L2.28125 5.38369H2.51253L2.32542 5.51963L2.39689 5.73958L2.20979 5.60364L2.02268 5.73958L2.09415 5.51963L1.90705 5.38369H2.13832L2.20979 5.16374ZM2.97086 5.94079L2.89939 5.72084L2.82792 5.94079H2.59665L2.78375 6.07673L2.71229 6.29668L2.89939 6.16074L3.08649 6.29668L3.01502 6.07673L3.20213 5.94079H2.97086ZM2.20979 4.04961L2.28125 4.26956H2.51253L2.32542 4.4055L2.39689 4.62545L2.20979 4.48951L2.02268 4.62545L2.09415 4.4055L1.90705 4.26956H2.13832L2.20979 4.04961ZM2.97086 4.82666L2.89939 4.60671L2.82792 4.82666H2.59665L2.78375 4.9626L2.71229 5.18255L2.89939 5.04661L3.08649 5.18255L3.01502 4.9626L3.20213 4.82666H2.97086ZM2.20979 2.93555L2.28125 3.1555H2.51253L2.32542 3.29143L2.39689 3.51138L2.20979 3.37545L2.02268 3.51138L2.09415 3.29143L1.90705 3.1555H2.13832L2.20979 2.93555ZM2.97086 3.71253L2.89939 3.49258L2.82792 3.71253H2.59665L2.78375 3.84847L2.71229 4.06842L2.89939 3.93248L3.08649 4.06842L3.01502 3.84847L3.20213 3.71253H2.97086ZM3.53604 7.39193L3.6075 7.61189H3.83877L3.65167 7.74783L3.72314 7.96778L3.53604 7.83184L3.34894 7.96778L3.4204 7.74783L3.2333 7.61189H3.46457L3.53604 7.39193ZM3.6075 6.49783L3.53604 6.27788L3.46457 6.49783H3.2333L3.4204 6.63377L3.34894 6.85372L3.53604 6.71778L3.72314 6.85372L3.65167 6.63377L3.83877 6.49783H3.6075ZM4.22599 6.83491L4.29746 7.05486H4.52873L4.34163 7.19079L4.4131 7.41074L4.22599 7.27481L4.03889 7.41074L4.11035 7.19079L3.92325 7.05486H4.15452L4.22599 6.83491ZM3.6075 5.38369L3.53604 5.16374L3.46457 5.38369H3.2333L3.4204 5.51963L3.34894 5.73958L3.53604 5.60364L3.72314 5.73958L3.65167 5.51963L3.83877 5.38369H3.6075ZM4.22599 5.72084L4.29746 5.94079H4.52873L4.34163 6.07673L4.4131 6.29668L4.22599 6.16074L4.03889 6.29668L4.11035 6.07673L3.92325 5.94079H4.15452L4.22599 5.72084ZM3.6075 4.26956L3.53604 4.04961L3.46457 4.26956H3.2333L3.4204 4.4055L3.34894 4.62545L3.53604 4.48951L3.72314 4.62545L3.65167 4.4055L3.83877 4.26956H3.6075ZM4.22599 4.60671L4.29746 4.82666H4.52873L4.34163 4.9626L4.4131 5.18255L4.22599 5.04661L4.03889 5.18255L4.11035 4.9626L3.92325 4.82666H4.15452L4.22599 4.60671ZM3.6075 3.1555L3.53604 2.93555L3.46457 3.1555H3.2333L3.4204 3.29143L3.34894 3.51138L3.53604 3.37545L3.72314 3.51138L3.65167 3.29143L3.83877 3.1555H3.6075ZM4.22599 3.49258L4.29746 3.71253H4.52873L4.34163 3.84847L4.4131 4.06842L4.22599 3.93248L4.03889 4.06842L4.11035 3.84847L3.92325 3.71253H4.15452L4.22599 3.49258ZM4.9341 7.61189L4.86264 7.39193L4.79117 7.61189H4.5599L4.747 7.74783L4.67554 7.96778L4.86264 7.83184L5.04974 7.96778L4.97827 7.74783L5.16537 7.61189H4.9341ZM4.86264 6.27788L4.9341 6.49783H5.16537L4.97827 6.63377L5.04974 6.85372L4.86264 6.71778L4.67554 6.85372L4.747 6.63377L4.5599 6.49783H4.79117L4.86264 6.27788ZM5.62312 7.05486L5.55165 6.83491L5.48018 7.05486H5.24891L5.43602 7.19079L5.36455 7.41074L5.55165 7.27481L5.73875 7.41074L5.66728 7.19079L5.85439 7.05486H5.62312ZM4.86264 5.16374L4.9341 5.38369H5.16537L4.97827 5.51963L5.04974 5.73958L4.86264 5.60364L4.67554 5.73958L4.747 5.51963L4.5599 5.38369H4.79117L4.86264 5.16374ZM5.62312 5.94079L5.55165 5.72084L5.48018 5.94079H5.24891L5.43602 6.07673L5.36455 6.29668L5.55165 6.16074L5.73875 6.29668L5.66728 6.07673L5.85439 5.94079H5.62312ZM4.86264 4.04961L4.9341 4.26956H5.16537L4.97827 4.4055L5.04974 4.62545L4.86264 4.48951L4.67554 4.62545L4.747 4.4055L4.5599 4.26956H4.79117L4.86264 4.04961ZM5.62312 4.82666L5.55165 4.60671L5.48018 4.82666H5.24891L5.43602 4.9626L5.36455 5.18255L5.55165 5.04661L5.73875 5.18255L5.66728 4.9626L5.85439 4.82666H5.62312ZM4.86264 2.93555L4.9341 3.1555H5.16537L4.97827 3.29143L5.04974 3.51138L4.86264 3.37545L4.67554 3.51138L4.747 3.29143L4.5599 3.1555H4.79117L4.86264 2.93555ZM5.62312 3.71253L5.55165 3.49258L5.48018 3.71253H5.24891L5.43602 3.84847L5.36455 4.06842L5.55165 3.93248L5.73875 4.06842L5.66728 3.84847L5.85439 3.71253H5.62312ZM6.1889 7.39193L6.26037 7.61189H6.49164L6.30453 7.74783L6.376 7.96778L6.1889 7.83184L6.0018 7.96778L6.07327 7.74783L5.88616 7.61189H6.11743L6.1889 7.39193ZM6.26037 6.49783L6.1889 6.27788L6.11743 6.49783H5.88616L6.07327 6.63377L6.0018 6.85372L6.1889 6.71778L6.376 6.85372L6.30453 6.63377L6.49164 6.49783H6.26037ZM6.87824 6.83491L6.9497 7.05486H7.18097L6.99387 7.19079L7.06534 7.41074L6.87824 7.27481L6.69114 7.41074L6.7626 7.19079L6.5755 7.05486H6.80677L6.87824 6.83491ZM6.26037 5.38369L6.1889 5.16374L6.11743 5.38369H5.88616L6.07327 5.51963L6.0018 5.73958L6.1889 5.60364L6.376 5.73958L6.30453 5.51963L6.49164 5.38369H6.26037ZM6.87824 5.72084L6.9497 5.94079H7.18097L6.99387 6.07673L7.06534 6.29668L6.87824 6.16074L6.69114 6.29668L6.7626 6.07673L6.5755 5.94079H6.80677L6.87824 5.72084ZM6.26037 4.26956L6.1889 4.04961L6.11743 4.26956H5.88616L6.07327 4.4055L6.0018 4.62545L6.1889 4.48951L6.376 4.62545L6.30453 4.4055L6.49164 4.26956H6.26037ZM6.87824 4.60671L6.9497 4.82666H7.18097L6.99387 4.9626L7.06534 5.18255L6.87824 5.04661L6.69114 5.18255L6.7626 4.9626L6.5755 4.82666H6.80677L6.87824 4.60671ZM6.26037 3.1555L6.1889 2.93555L6.11743 3.1555H5.88616L6.07327 3.29143L6.0018 3.51138L6.1889 3.37545L6.376 3.51138L6.30453 3.29143L6.49164 3.1555H6.26037ZM6.87824 3.49258L6.9497 3.71253H7.18097L6.99387 3.84847L7.06534 4.06842L6.87824 3.93248L6.69114 4.06842L6.7626 3.84847L6.5755 3.71253H6.80677L6.87824 3.49258ZM7.58602 7.61189L7.51456 7.39193L7.44309 7.61189H7.21182L7.39892 7.74783L7.32746 7.96778L7.51456 7.83184L7.70166 7.96778L7.63019 7.74783L7.81729 7.61189H7.58602ZM7.51456 6.27788L7.58602 6.49783H7.81729L7.63019 6.63377L7.70166 6.85372L7.51456 6.71778L7.32746 6.85372L7.39892 6.63377L7.21182 6.49783H7.44309L7.51456 6.27788ZM7.58602 5.38369L7.51456 5.16374L7.44309 5.38369H7.21182L7.39892 5.51963L7.32746 5.73958L7.51456 5.60364L7.70166 5.73958L7.63019 5.51963L7.81729 5.38369H7.58602ZM7.51456 4.04961L7.58602 4.26956H7.81729L7.63019 4.4055L7.70166 4.62545L7.51456 4.48951L7.32746 4.62545L7.39892 4.4055L7.21182 4.26956H7.44309L7.51456 4.04961ZM7.58602 3.1555L7.51456 2.93555L7.44309 3.1555H7.21182L7.39892 3.29143L7.32746 3.51138L7.51456 3.37545L7.70166 3.51138L7.63019 3.29143L7.81729 3.1555H7.58602Z" fill="white"/>
</g>
<defs>
<clipPath id="clip0">
<rect width="16" height="16" fill="white"/>
</clipPath>
</defs>
</svg>
