<svg width="16" height="16" viewBox="0 0 16 16" fill="none" xmlns="http://www.w3.org/2000/svg">
<g clip-path="url(#clip0)">
<path d="M16 11.9225C16 12.7999 15.3032 13.4193 14.4516 13.4193H1.54839C0.696774 13.4193 0 12.7999 0 11.9225V4.07734C0 3.19992 0.696774 2.58057 1.54839 2.58057H14.4516C15.3032 2.58057 16 3.19992 16 4.07734V11.9225Z" fill="#29337A"/>
<path d="M1.54834 2.58057H14.4516C15.3032 2.58057 16 3.19992 16 4.07734V11.9225C16 12.7999 15.1741 13.4193 14.3225 13.4193" fill="#29337A"/>
<path d="M8.77416 7.99992L14.2709 2.58057H12.7226L7.99997 7.30315L3.27739 2.58057H1.729L7.22578 7.99992L1.729 13.4193H3.27739L7.99997 8.69669L12.7226 13.4193H14.2709L8.77416 7.99992Z" fill="white"/>
<path d="M13.2645 12.4644L8.77416 8.05153L14.2709 2.58057H12.7226L7.99997 7.30315L3.27739 2.58057H1.729L2.76126 3.56121L13.2645 12.4644Z" fill="white"/>
<path d="M16 6.96766H9.03226V2.58057H6.96774V6.96766H0V9.03218H6.96774V13.4193H9.03226V9.03218H16V6.96766Z" fill="white"/>
<path d="M9.03227 2.58057H6.96775V6.96766H6.78711L9.21292 9.03218H16V6.96766H9.03227V2.58057Z" fill="white"/>
<path d="M16 7.48379H8.51613H8.82581L13.9613 2.58057H13.4452L8.51613 7.48379V2.58057H7.48387V7.48379L2.50323 2.58057H2.03871L6.96774 7.48379H0V8.51605H6.99355L2.16774 13.4193H2.63226L7.48387 8.51605V13.4193H8.51613V8.56766L13.4968 13.4193H13.9613L9.03226 8.51605H16V7.48379Z" fill="#E51D35"/>
</g>
<defs>
<clipPath id="clip0">
<rect width="16" height="16" fill="white"/>
</clipPath>
</defs>
</svg>
