<svg width="16" height="16" viewBox="0 0 16 16" fill="none" xmlns="http://www.w3.org/2000/svg">
<path d="M0 6V9.99995H16V6C16 6 2.44573 5.99984 0 6Z" fill="white"/>
<path d="M0 9.83228V11.9226C0 12.8 0.696774 13.4968 1.54839 13.4968H14.4516C15.3032 13.4968 16 12.8 16 11.9226V9.83228H0Z" fill="#DA0000"/>
<path d="M14.4516 2.50317H1.54839C0.696774 2.50317 0 3.19995 0 4.07737V6.16769H16V4.07737C16 3.19995 15.3032 2.50317 14.4516 2.50317Z" fill="#239F40"/>
<path d="M8.6709 6.78735C8.6709 6.78735 9.88381 7.74219 8.98058 9.08413C9.83219 8.568 9.90961 7.17445 8.6709 6.78735Z" fill="#DA0000"/>
<path d="M8.00009 6.6324C8.18074 6.83885 8.51622 6.6324 8.413 6.40015C8.20655 6.76143 8.00009 6.47757 8.00009 6.47757C8.00009 6.47757 7.79364 6.76143 7.58719 6.40015C7.48397 6.6324 7.81945 6.86466 8.00009 6.6324Z" fill="#DA0000"/>
<path d="M9.05815 7.97423C9.00653 7.09681 8.54202 6.81294 8.54202 6.81294C8.54202 6.81294 9.36783 8.02584 8.15492 9.0581L8.20653 7.79359V6.86456C8.12911 6.83875 8.00008 6.70972 8.00008 6.70972C8.00008 6.70972 7.87105 6.86456 7.79363 6.86456V7.79359L7.84524 9.0581C6.60653 8.02584 7.45815 6.81294 7.45815 6.81294C7.45815 6.81294 6.99363 7.07101 6.94202 7.97423C6.91621 8.85165 7.71621 9.29036 7.71621 9.29036C7.63879 9.31617 7.45815 9.39359 7.09686 9.39359C7.53557 9.54843 7.84524 9.4452 7.84524 9.4452L7.97428 9.62584L8.10331 9.4452C8.10331 9.4452 8.43879 9.54843 8.8517 9.39359C8.49041 9.39359 8.30976 9.34197 8.23234 9.29036C8.28395 9.26455 9.05815 8.85165 9.05815 7.97423Z" fill="#DA0000"/>
<path d="M7.32933 6.78711C6.09061 7.17421 6.16803 8.59356 7.01965 9.08389C6.11642 7.71614 7.32933 6.78711 7.32933 6.78711Z" fill="#DA0000"/>
<path d="M7.32933 6.78711C6.09061 7.17421 6.16803 8.59356 7.01965 9.08389C6.11642 7.71614 7.32933 6.78711 7.32933 6.78711Z" fill="#DA0000"/>
<g opacity="0.6">
<path opacity="0.5" d="M8.28365 5.47095H7.22559V5.57417H8.28365V5.47095Z" fill="white"/>
<path opacity="0.5" d="M8.67055 5.78062H8.61894V5.47095H8.51571V5.78062H8.43829V5.47095H8.33507V5.62579H8.02539V5.88385H8.28345V5.78062H8.12862V5.72901H8.33507V5.88385H8.77378V5.47095H8.67055V5.78062Z" fill="white"/>
<path opacity="0.5" d="M7.4836 5.78052H7.38037V5.88374H7.4836V5.78052Z" fill="white"/>
<path opacity="0.5" d="M7.32881 5.72896H7.56107V5.8838H7.97397V5.62573H7.71591V5.72896H7.87075V5.78057H7.6643V5.62573H7.22559V5.8838H7.32881V5.72896Z" fill="white"/>
<path opacity="0.5" d="M8.77378 5.96118H8.02539V6.06441H8.77378V5.96118Z" fill="white"/>
<path opacity="0.5" d="M7.97397 5.96118H7.22559V6.06441H7.97397V5.96118Z" fill="white"/>
<path opacity="0.5" d="M8.28365 10.1162H7.22559V10.2194H8.28365V10.1162Z" fill="white"/>
<path opacity="0.5" d="M7.71591 10.3742H7.87075V10.4258H7.6643V10.271H7.22559V10.5291H7.32881V10.3742H7.56107V10.5291H7.97397V10.271H7.71591V10.3742Z" fill="white"/>
<path opacity="0.5" d="M8.67055 10.4259H8.61894V10.1162H8.51571V10.4259H8.43829V10.1162H8.33507V10.271H8.02539V10.5291H8.28345V10.4259H8.12862V10.3743H8.33507V10.5291H8.77378V10.1162H8.67055V10.4259Z" fill="white"/>
<path opacity="0.5" d="M7.4836 10.4258H7.38037V10.529H7.4836V10.4258Z" fill="white"/>
<path opacity="0.5" d="M8.77378 9.93555H8.02539V10.0388H8.77378V9.93555Z" fill="white"/>
<path opacity="0.5" d="M7.97397 9.93555H7.22559V10.0388H7.97397V9.93555Z" fill="white"/>
<path opacity="0.5" d="M9.88375 5.47095H8.82568V5.57417H9.88375V5.47095Z" fill="white"/>
<path opacity="0.5" d="M10.2448 5.78062H10.1932V5.47095H10.09V5.78062H10.0384V5.47095H9.93517V5.62579H9.62549V5.88385H9.88355V5.78062H9.72871V5.72901H9.93517V5.88385H10.3481V5.47095H10.2448V5.78062Z" fill="white"/>
<path opacity="0.5" d="M9.08369 5.78052H8.98047V5.88374H9.08369V5.78052Z" fill="white"/>
<path opacity="0.5" d="M8.92891 5.72896H9.13536V5.8838H9.57407V5.62573H9.2902V5.72896H9.47085V5.78057H9.23859V5.62573H8.82568V5.8838H8.92891V5.72896Z" fill="white"/>
<path opacity="0.5" d="M9.57407 5.96118H8.82568V6.06441H9.57407V5.96118Z" fill="white"/>
<path opacity="0.5" d="M10.3739 5.96118H9.62549V6.06441H10.3739V5.96118Z" fill="white"/>
<path opacity="0.5" d="M9.2902 10.3742H9.47085V10.4258H9.23859V10.271H8.82568V10.5291H8.92891V10.3742H9.13536V10.5291H9.57407V10.271H9.2902V10.3742Z" fill="white"/>
<path opacity="0.5" d="M10.2448 10.4259H10.1932V10.1162H10.09V10.4259H10.0384V10.1162H9.93517V10.271H9.62549V10.5291H9.88355V10.4259H9.72871V10.3743H9.93517V10.5291H10.3481V10.1162H10.2448V10.4259Z" fill="white"/>
<path opacity="0.5" d="M9.08369 10.4258H8.98047V10.529H9.08369V10.4258Z" fill="white"/>
<path opacity="0.5" d="M9.88375 10.1162H8.82568V10.2194H9.88375V10.1162Z" fill="white"/>
<path opacity="0.5" d="M10.3739 9.93555H9.62549V10.0388H10.3739V9.93555Z" fill="white"/>
<path opacity="0.5" d="M9.57407 9.93555H8.82568V10.0388H9.57407V9.93555Z" fill="white"/>
<path opacity="0.5" d="M4.1545 5.72896H4.36095V5.8838H4.77385V5.62573H4.51578V5.72896H4.69643V5.78057H4.46417V5.62573H4.05127V5.8838H4.1545V5.72896Z" fill="white"/>
<path opacity="0.5" d="M5.47092 5.78062H5.4193V5.47095H5.31608V5.78062H5.26447V5.47095H5.16124V5.62579H4.85156V5.88385H5.10963V5.78062H4.95479V5.72901H5.16124V5.88385H5.57414V5.47095H5.47092V5.78062Z" fill="white"/>
<path opacity="0.5" d="M5.10934 5.47095H4.05127V5.57417H5.10934V5.47095Z" fill="white"/>
<path opacity="0.5" d="M4.30928 5.78052H4.20605V5.88374H4.30928V5.78052Z" fill="white"/>
<path opacity="0.5" d="M4.79965 5.96118H4.05127V6.06441H4.79965V5.96118Z" fill="white"/>
<path opacity="0.5" d="M5.59995 5.96118H4.85156V6.06441H5.59995V5.96118Z" fill="white"/>
<path opacity="0.5" d="M4.30928 10.4258H4.20605V10.529H4.30928V10.4258Z" fill="white"/>
<path opacity="0.5" d="M5.47092 10.4259H5.4193V10.1162H5.31608V10.4259H5.26447V10.1162H5.16124V10.271H4.85156V10.5291H5.10963V10.4259H4.95479V10.3743H5.16124V10.5291H5.57414V10.1162H5.47092V10.4259Z" fill="white"/>
<path opacity="0.5" d="M5.10934 10.1162H4.05127V10.2194H5.10934V10.1162Z" fill="white"/>
<path opacity="0.5" d="M4.51578 10.3742H4.69643V10.4258H4.46417V10.271H4.05127V10.5291H4.1545V10.3742H4.36095V10.5291H4.77385V10.271H4.51578V10.3742Z" fill="white"/>
<path opacity="0.5" d="M4.79965 9.93555H4.05127V10.0388H4.79965V9.93555Z" fill="white"/>
<path opacity="0.5" d="M5.59995 9.93555H4.85156V10.0388H5.59995V9.93555Z" fill="white"/>
<path opacity="0.5" d="M6.70943 5.47095H5.65137V5.57417H6.70943V5.47095Z" fill="white"/>
<path opacity="0.5" d="M5.90938 5.78052H5.80615V5.88374H5.90938V5.78052Z" fill="white"/>
<path opacity="0.5" d="M7.07045 5.78062H7.01884V5.47095H6.91562V5.78062H6.864V5.47095H6.76078V5.62579H6.42529V5.88385H6.70916V5.78062H6.52852V5.72901H6.76078V5.88385H7.17368V5.47095H7.07045V5.78062Z" fill="white"/>
<path opacity="0.5" d="M5.75459 5.72896H5.96104V5.8838H6.37395V5.62573H6.11588V5.72896H6.27072V5.78057H6.06427V5.62573H5.65137V5.8838H5.75459V5.72896Z" fill="white"/>
<path opacity="0.5" d="M7.17368 5.96118H6.42529V6.06441H7.17368V5.96118Z" fill="white"/>
<path opacity="0.5" d="M6.39975 5.96118H5.65137V6.06441H6.39975V5.96118Z" fill="white"/>
<path opacity="0.5" d="M6.70943 10.1162H5.65137V10.2194H6.70943V10.1162Z" fill="white"/>
<path opacity="0.5" d="M7.07045 10.4259H7.01884V10.1162H6.91562V10.4259H6.864V10.1162H6.76078V10.271H6.42529V10.5291H6.70916V10.4259H6.52852V10.3743H6.76078V10.5291H7.17368V10.1162H7.07045V10.4259Z" fill="white"/>
<path opacity="0.5" d="M6.11588 10.3742H6.27072V10.4258H6.06427V10.271H5.65137V10.5291H5.75459V10.3742H5.96104V10.5291H6.37395V10.271H6.11588V10.3742Z" fill="white"/>
<path opacity="0.5" d="M5.90938 10.4258H5.80615V10.529H5.90938V10.4258Z" fill="white"/>
<path opacity="0.5" d="M7.17368 9.93555H6.42529V10.0388H7.17368V9.93555Z" fill="white"/>
<path opacity="0.5" d="M6.39975 9.93555H5.65137V10.0388H6.39975V9.93555Z" fill="white"/>
<path opacity="0.5" d="M15.0446 5.78062H14.9672V5.47095H14.8639V5.78062H14.8123V5.47095H14.7091V5.62579H14.3994V5.88385H14.6575V5.78062H14.5026V5.72901H14.7091V5.88385H15.1478V5.47095H15.0446V5.78062Z" fill="white"/>
<path opacity="0.5" d="M13.7028 5.72896H13.9093V5.8838H14.348V5.62573H14.0899V5.72896H14.2448V5.78057H14.0125V5.62573H13.5996V5.8838H13.7028V5.72896Z" fill="white"/>
<path opacity="0.5" d="M14.6577 5.47095H13.5996V5.57417H14.6577V5.47095Z" fill="white"/>
<path opacity="0.5" d="M13.8581 5.78052H13.7549V5.88374H13.8581V5.78052Z" fill="white"/>
<path opacity="0.5" d="M15.1478 5.96118H14.3994V6.06441H15.1478V5.96118Z" fill="white"/>
<path opacity="0.5" d="M14.348 5.96118H13.5996V6.06441H14.348V5.96118Z" fill="white"/>
<path opacity="0.5" d="M13.8581 10.4258H13.7549V10.529H13.8581V10.4258Z" fill="white"/>
<path opacity="0.5" d="M15.0446 10.4259H14.9672V10.1162H14.8639V10.4259H14.8123V10.1162H14.7091V10.271H14.3994V10.5291H14.6575V10.4259H14.5026V10.3743H14.7091V10.5291H15.1478V10.1162H15.0446V10.4259Z" fill="white"/>
<path opacity="0.5" d="M14.6577 10.1162H13.5996V10.2194H14.6577V10.1162Z" fill="white"/>
<path opacity="0.5" d="M14.0899 10.3742H14.2448V10.4258H14.0125V10.271H13.5996V10.5291H13.7028V10.3742H13.9093V10.5291H14.348V10.271H14.0899V10.3742Z" fill="white"/>
<path opacity="0.5" d="M14.348 9.93555H13.5996V10.0388H14.348V9.93555Z" fill="white"/>
<path opacity="0.5" d="M15.1478 9.93555H14.3994V10.0388H15.1478V9.93555Z" fill="white"/>
<path opacity="0.5" d="M15.3029 5.72896H15.5094V5.8838H15.9223V5.62573H15.6642V5.72896H15.8191V5.78057H15.6126V5.62573H15.1997V5.8838H15.3029V5.72896Z" fill="white"/>
<path opacity="0.5" d="M15.7674 5.47095H15.1997V5.57417H15.7674V5.47095Z" fill="white"/>
<path opacity="0.5" d="M15.4577 5.78052H15.3545V5.88374H15.4577V5.78052Z" fill="white"/>
<path opacity="0.5" d="M15.9481 5.96118H15.1997V6.06441H15.9481V5.96118Z" fill="white"/>
<path opacity="0.5" d="M15.6642 10.3742H15.8191V10.4258H15.6126V10.271H15.1997V10.5291H15.3029V10.3742H15.5094V10.5291H15.9223V10.271H15.6642V10.3742Z" fill="white"/>
<path opacity="0.5" d="M15.4577 10.4258H15.3545V10.529H15.4577V10.4258Z" fill="white"/>
<path opacity="0.5" d="M15.7674 10.1162H15.1997V10.2194H15.7674V10.1162Z" fill="white"/>
<path opacity="0.5" d="M15.9481 9.93555H15.1997V10.0388H15.9481V9.93555Z" fill="white"/>
<path opacity="0.5" d="M10.5285 5.72896H10.735V5.8838H11.1479V5.62573H10.8898V5.72896H11.0446V5.78057H10.8382V5.62573H10.4253V5.8838H10.5285V5.72896Z" fill="white"/>
<path opacity="0.5" d="M11.8449 5.78062H11.7933V5.47095H11.6901V5.78062H11.6385V5.47095H11.5353V5.62579H11.2256V5.88385H11.4837V5.78062H11.303V5.72901H11.5353V5.88385H11.9482V5.47095H11.8449V5.78062Z" fill="white"/>
<path opacity="0.5" d="M10.6838 5.78052H10.5806V5.88374H10.6838V5.78052Z" fill="white"/>
<path opacity="0.5" d="M11.4834 5.47095H10.4253V5.57417H11.4834V5.47095Z" fill="white"/>
<path opacity="0.5" d="M11.974 5.96118H11.2256V6.06441H11.974V5.96118Z" fill="white"/>
<path opacity="0.5" d="M11.1737 5.96118H10.4253V6.06441H11.1737V5.96118Z" fill="white"/>
<path opacity="0.5" d="M11.4834 10.1162H10.4253V10.2194H11.4834V10.1162Z" fill="white"/>
<path opacity="0.5" d="M10.8898 10.3742H11.0446V10.4258H10.8382V10.271H10.4253V10.5291H10.5285V10.3742H10.735V10.5291H11.1479V10.271H10.8898V10.3742Z" fill="white"/>
<path opacity="0.5" d="M10.6838 10.4258H10.5806V10.529H10.6838V10.4258Z" fill="white"/>
<path opacity="0.5" d="M11.8449 10.4259H11.7933V10.1162H11.6901V10.4259H11.6385V10.1162H11.5353V10.271H11.2256V10.5291H11.4837V10.4259H11.303V10.3743H11.5353V10.5291H11.9482V10.1162H11.8449V10.4259Z" fill="white"/>
<path opacity="0.5" d="M11.1737 9.93555H10.4253V10.0388H11.1737V9.93555Z" fill="white"/>
<path opacity="0.5" d="M11.974 9.93555H11.2256V10.0388H11.974V9.93555Z" fill="white"/>
<path opacity="0.5" d="M13.0581 5.47095H12V5.57417H13.0581V5.47095Z" fill="white"/>
<path opacity="0.5" d="M13.445 5.78062H13.3934V5.47095H13.2901V5.78062H13.2385V5.47095H13.1353V5.62579H12.7998V5.88385H13.0579V5.78062H12.903V5.72901H13.1353V5.88385H13.5482V5.47095H13.445V5.78062Z" fill="white"/>
<path opacity="0.5" d="M12.2834 5.78052H12.1802V5.88374H12.2834V5.78052Z" fill="white"/>
<path opacity="0.5" d="M12.1032 5.72896H12.3355V5.8838H12.7484V5.62573H12.4903V5.72896H12.6452V5.78057H12.4387V5.62573H12V5.8838H12.1032V5.72896Z" fill="white"/>
<path opacity="0.5" d="M13.5482 5.96118H12.7998V6.06441H13.5482V5.96118Z" fill="white"/>
<path opacity="0.5" d="M12.7484 5.96118H12V6.06441H12.7484V5.96118Z" fill="white"/>
<path opacity="0.5" d="M12.4903 10.3742H12.6452V10.4258H12.4387V10.271H12V10.5291H12.1032V10.3742H12.3355V10.5291H12.7484V10.271H12.4903V10.3742Z" fill="white"/>
<path opacity="0.5" d="M13.0581 10.1162H12V10.2194H13.0581V10.1162Z" fill="white"/>
<path opacity="0.5" d="M13.445 10.4259H13.3934V10.1162H13.2901V10.4259H13.2385V10.1162H13.1353V10.271H12.7998V10.5291H13.0579V10.4259H12.903V10.3743H13.1353V10.5291H13.5482V10.1162H13.445V10.4259Z" fill="white"/>
<path opacity="0.5" d="M12.2834 10.4258H12.1802V10.529H12.2834V10.4258Z" fill="white"/>
<path opacity="0.5" d="M12.7484 9.93555H12V10.0388H12.7484V9.93555Z" fill="white"/>
<path opacity="0.5" d="M13.5482 9.93555H12.7998V10.0388H13.5482V9.93555Z" fill="white"/>
<path opacity="0.5" d="M3.50924 5.47095H2.45117V5.57417H3.50924V5.47095Z" fill="white"/>
<path opacity="0.5" d="M2.70967 5.78052H2.60645V5.88374H2.70967V5.78052Z" fill="white"/>
<path opacity="0.5" d="M2.5544 5.72896H2.76085V5.8838H3.19956V5.62573H2.94149V5.72896H3.09633V5.78057H2.86408V5.62573H2.45117V5.8838H2.5544V5.72896Z" fill="white"/>
<path opacity="0.5" d="M3.89663 5.78062H3.81921V5.47095H3.74179V5.78062H3.66437V5.47095H3.56114V5.62579H3.25146V5.88385H3.50953V5.78062H3.35469V5.72901H3.56114V5.88385H3.99985V5.47095H3.89663V5.78062Z" fill="white"/>
<path opacity="0.5" d="M3.19956 5.96118H2.45117V6.06441H3.19956V5.96118Z" fill="white"/>
<path opacity="0.5" d="M3.99985 5.96118H3.25146V6.06441H3.99985V5.96118Z" fill="white"/>
<path opacity="0.5" d="M3.50924 10.1162H2.45117V10.2194H3.50924V10.1162Z" fill="white"/>
<path opacity="0.5" d="M2.94149 10.3742H3.09633V10.4258H2.86408V10.271H2.45117V10.5291H2.5544V10.3742H2.76085V10.5291H3.19956V10.271H2.94149V10.3742Z" fill="white"/>
<path opacity="0.5" d="M2.70967 10.4258H2.60645V10.529H2.70967V10.4258Z" fill="white"/>
<path opacity="0.5" d="M3.89663 10.4259H3.81921V10.1162H3.74179V10.4259H3.66437V10.1162H3.56114V10.271H3.25146V10.5291H3.50953V10.4259H3.35469V10.3743H3.56114V10.5291H3.99985V10.1162H3.89663V10.4259Z" fill="white"/>
<path opacity="0.5" d="M3.19956 9.93555H2.45117V10.0388H3.19956V9.93555Z" fill="white"/>
<path opacity="0.5" d="M3.99985 9.93555H3.25146V10.0388H3.99985V9.93555Z" fill="white"/>
<path opacity="0.5" d="M0.696503 5.78062H0.64489V5.47095H0.541664V5.78062H0.490052V5.47095H0.386826V5.62579H0.0771484V5.88385H0.335213V5.78062H0.180374V5.72901H0.386826V5.88385H0.799729V5.47095H0.696503V5.78062Z" fill="white"/>
<path opacity="0.5" d="M0.825535 5.96118H0.0771484V6.06441H0.825535V5.96118Z" fill="white"/>
<path opacity="0.5" d="M0.696503 10.4259H0.64489V10.1162H0.541664V10.4259H0.490052V10.1162H0.386826V10.271H0.0771484V10.5291H0.335213V10.4259H0.180374V10.3743H0.386826V10.5291H0.799729V10.1162H0.696503V10.4259Z" fill="white"/>
<path opacity="0.5" d="M0.825535 9.93555H0.0771484V10.0388H0.825535V9.93555Z" fill="white"/>
<path opacity="0.5" d="M1.90963 5.47095H0.851562V5.57417H1.90963V5.47095Z" fill="white"/>
<path opacity="0.5" d="M0.954788 5.72896H1.18705V5.8838H1.59995V5.62573H1.34189V5.72896H1.49672V5.78057H1.29027V5.62573H0.851562V5.8838H0.954788V5.72896Z" fill="white"/>
<path opacity="0.5" d="M1.13496 5.78052H1.03174V5.88374H1.13496V5.78052Z" fill="white"/>
<path opacity="0.5" d="M2.29653 5.78062H2.24492V5.47095H2.14169V5.78062H2.09008V5.47095H1.98685V5.62579H1.65137V5.88385H1.90943V5.78062H1.75459V5.72901H1.98685V5.88385H2.39976V5.47095H2.29653V5.78062Z" fill="white"/>
<path opacity="0.5" d="M2.39976 5.96118H1.65137V6.06441H2.39976V5.96118Z" fill="white"/>
<path opacity="0.5" d="M1.59995 5.96118H0.851562V6.06441H1.59995V5.96118Z" fill="white"/>
<path opacity="0.5" d="M1.13496 10.4258H1.03174V10.529H1.13496V10.4258Z" fill="white"/>
<path opacity="0.5" d="M1.90963 10.1162H0.851562V10.2194H1.90963V10.1162Z" fill="white"/>
<path opacity="0.5" d="M1.34189 10.3742H1.49672V10.4258H1.29027V10.271H0.851562V10.5291H0.954788V10.3742H1.18705V10.5291H1.59995V10.271H1.34189V10.3742Z" fill="white"/>
<path opacity="0.5" d="M2.29653 10.4259H2.24492V10.1162H2.14169V10.4259H2.09008V10.1162H1.98685V10.271H1.65137V10.5291H1.90943V10.4259H1.75459V10.3743H1.98685V10.5291H2.39976V10.1162H2.29653V10.4259Z" fill="white"/>
<path opacity="0.5" d="M2.39976 9.93555H1.65137V10.0388H2.39976V9.93555Z" fill="white"/>
<path opacity="0.5" d="M1.59995 9.93555H0.851562V10.0388H1.59995V9.93555Z" fill="white"/>
</g>
</svg>
