<svg width="16" height="16" viewBox="0 0 16 16" fill="none" xmlns="http://www.w3.org/2000/svg">
<path d="M16 11.9225C16 12.7999 15.3032 13.4193 14.4516 13.4193H1.54839C0.696774 13.4193 0 12.7999 0 11.9225V4.07734C0 3.19992 0.696774 2.58057 1.54839 2.58057H14.4516C15.3032 2.58057 16 3.19992 16 4.07734V11.9225Z" fill="#DB2727"/>
<path d="M2.50312 5.54844C2.50312 4.74844 3.14829 4.12909 3.92248 4.12909C4.18054 4.12909 4.43861 4.2065 4.64506 4.33554C4.33538 4.02586 3.89667 3.84521 3.43216 3.84521C2.47732 3.84521 1.70312 4.61941 1.70312 5.57425C1.70312 6.52909 2.47732 7.30328 3.43216 7.30328C3.89667 7.30328 4.33538 7.12263 4.64506 6.81296C4.43861 6.94199 4.18054 7.01941 3.92248 7.01941C3.14829 6.96779 2.50312 6.34844 2.50312 5.54844Z" fill="#F3F4F5"/>
<path d="M5.57414 4.61938L5.90963 5.18713L6.5806 5.03229L6.14189 5.54842L6.50318 6.14197L5.85801 5.8839L5.4193 6.40003L5.47092 5.70326L4.85156 5.44519L5.52253 5.29035L5.57414 4.61938Z" fill="#F3F4F5"/>
</svg>
